# xmcd CD database file
#
# Track frame offsets:
#	150
#	15147
#	29534
#	51313
#	67725
#	89078
#	106071
#	121831
#	136290
#	149723
#	169412
#	185911
#	201715
#
# Disc length: 2840 seconds
#
# Revision: 0
# Processed by: cddbd v1.5.2PL0 Copyright (c) Steve Scherf et al.
# Submitted via: CDex 1.51
#
DISCID=c30b160d
DTITLE=Paul Reaney - A Town Like This
DYEAR=2007
DGENRE=Country
TTITLE0=A Town Like This
TTITLE1=Whisper On The Wind
TTITLE2=You Can't Come Home With Me
TTITLE3=Flowers By The Roadside
TTITLE4=The Captains Daughter
TTITLE5=The Touch Of An Angels Wing
TTITLE6=Daddys Girl
TTITLE7=Suburban Cowboy
TTITLE8=Those Eyes
TTITLE9=The Ride
TTITLE10=Watch The Evening Fall
TTITLE11=Take My Revenge
TTITLE12=Up On Lone Jack
EXTD=YEAR: 2007
EXTT0=
EXTT1=
EXTT2=
EXTT3=
EXTT4=
EXTT5=
EXTT6=
EXTT7=
EXTT8=
EXTT9=
EXTT10=
EXTT11=
EXTT12=
PLAYORDER=
